<mxfile host="app.diagrams.net" modified="2023-11-07T20:25:52.508Z" agent="Mozilla/5.0 (Windows NT 10.0; Win64; x64) AppleWebKit/537.36 (KHTML, like Gecko) Chrome/118.0.0.0 Safari/537.36" etag="fOV_yo-1_oyK8JLureyb" version="22.0.8" type="device">
  <diagram name="Page-1" id="-b-wVqnBgHRe6GBtFG7t">
    <mxGraphModel dx="1900" dy="1642" grid="1" gridSize="10" guides="1" tooltips="1" connect="1" arrows="1" fold="1" page="1" pageScale="1" pageWidth="850" pageHeight="1100" math="0" shadow="0">
      <root>
        <mxCell id="0" />
        <mxCell id="1" parent="0" />
        <mxCell id="re8HCCjE5XyblDTNHWKC-61" value="" style="strokeWidth=2;html=1;shape=mxgraph.flowchart.start_1;whiteSpace=wrap;" vertex="1" parent="1">
          <mxGeometry x="130" y="-60" width="100" height="50" as="geometry" />
        </mxCell>
        <mxCell id="re8HCCjE5XyblDTNHWKC-69" style="edgeStyle=orthogonalEdgeStyle;rounded=0;orthogonalLoop=1;jettySize=auto;html=1;exitX=0.5;exitY=0.88;exitDx=0;exitDy=0;exitPerimeter=0;entryX=0.5;entryY=0;entryDx=0;entryDy=0;" edge="1" parent="1" source="re8HCCjE5XyblDTNHWKC-62" target="re8HCCjE5XyblDTNHWKC-68">
          <mxGeometry relative="1" as="geometry" />
        </mxCell>
        <mxCell id="re8HCCjE5XyblDTNHWKC-62" value="" style="strokeWidth=2;html=1;shape=mxgraph.flowchart.multi-document;whiteSpace=wrap;" vertex="1" parent="1">
          <mxGeometry x="136" y="40" width="114" height="70" as="geometry" />
        </mxCell>
        <mxCell id="re8HCCjE5XyblDTNHWKC-64" style="edgeStyle=orthogonalEdgeStyle;rounded=0;orthogonalLoop=1;jettySize=auto;html=1;entryX=0.5;entryY=0;entryDx=0;entryDy=0;entryPerimeter=0;" edge="1" parent="1" source="re8HCCjE5XyblDTNHWKC-63" target="re8HCCjE5XyblDTNHWKC-62">
          <mxGeometry relative="1" as="geometry">
            <mxPoint x="180" y="30" as="targetPoint" />
          </mxGeometry>
        </mxCell>
        <mxCell id="re8HCCjE5XyblDTNHWKC-63" value="&lt;h2&gt;&lt;b&gt;START&lt;/b&gt;&lt;/h2&gt;" style="text;html=1;strokeColor=#82b366;fillColor=#d5e8d4;align=center;verticalAlign=middle;whiteSpace=wrap;rounded=0;" vertex="1" parent="1">
          <mxGeometry x="140" y="-50" width="80" height="30" as="geometry" />
        </mxCell>
        <mxCell id="re8HCCjE5XyblDTNHWKC-65" value="&lt;h4&gt;&lt;b&gt;Import Libraries&lt;/b&gt;&lt;/h4&gt;" style="text;html=1;strokeColor=none;fillColor=none;align=center;verticalAlign=middle;whiteSpace=wrap;rounded=0;" vertex="1" parent="1">
          <mxGeometry x="136" y="60" width="104" height="30" as="geometry" />
        </mxCell>
        <mxCell id="re8HCCjE5XyblDTNHWKC-66" value="" style="shape=cylinder3;whiteSpace=wrap;html=1;boundedLbl=1;backgroundOutline=1;size=15;" vertex="1" parent="1">
          <mxGeometry x="-120" y="90" width="90" height="80" as="geometry" />
        </mxCell>
        <mxCell id="re8HCCjE5XyblDTNHWKC-67" value="&lt;h1&gt;&lt;b&gt;IPFS&lt;/b&gt;&lt;/h1&gt;" style="text;html=1;strokeColor=none;fillColor=none;align=center;verticalAlign=middle;whiteSpace=wrap;rounded=0;" vertex="1" parent="1">
          <mxGeometry x="-120" y="130" width="90" height="30" as="geometry" />
        </mxCell>
        <mxCell id="re8HCCjE5XyblDTNHWKC-68" value="" style="shape=parallelogram;html=1;strokeWidth=2;perimeter=parallelogramPerimeter;whiteSpace=wrap;rounded=1;arcSize=12;size=0.23;" vertex="1" parent="1">
          <mxGeometry x="130" y="150" width="130" height="60" as="geometry" />
        </mxCell>
        <mxCell id="re8HCCjE5XyblDTNHWKC-70" value="" style="endArrow=classic;html=1;rounded=0;exitX=1;exitY=0.25;exitDx=0;exitDy=0;" edge="1" parent="1" source="re8HCCjE5XyblDTNHWKC-67">
          <mxGeometry width="50" height="50" relative="1" as="geometry">
            <mxPoint x="150" y="240" as="sourcePoint" />
            <mxPoint x="140" y="180" as="targetPoint" />
          </mxGeometry>
        </mxCell>
        <mxCell id="re8HCCjE5XyblDTNHWKC-73" value="" style="edgeStyle=orthogonalEdgeStyle;rounded=0;orthogonalLoop=1;jettySize=auto;html=1;" edge="1" parent="1" source="re8HCCjE5XyblDTNHWKC-71" target="re8HCCjE5XyblDTNHWKC-72">
          <mxGeometry relative="1" as="geometry" />
        </mxCell>
        <mxCell id="re8HCCjE5XyblDTNHWKC-71" value="&lt;h3&gt;&lt;b&gt;Data Set&lt;/b&gt;&lt;/h3&gt;" style="text;html=1;strokeColor=none;fillColor=none;align=center;verticalAlign=middle;whiteSpace=wrap;rounded=0;" vertex="1" parent="1">
          <mxGeometry x="150" y="165" width="90" height="30" as="geometry" />
        </mxCell>
        <mxCell id="re8HCCjE5XyblDTNHWKC-72" value="" style="rounded=1;whiteSpace=wrap;html=1;" vertex="1" parent="1">
          <mxGeometry x="330" y="150" width="120" height="60" as="geometry" />
        </mxCell>
        <mxCell id="re8HCCjE5XyblDTNHWKC-78" value="" style="edgeStyle=orthogonalEdgeStyle;rounded=0;orthogonalLoop=1;jettySize=auto;html=1;" edge="1" parent="1" source="re8HCCjE5XyblDTNHWKC-74" target="re8HCCjE5XyblDTNHWKC-77">
          <mxGeometry relative="1" as="geometry" />
        </mxCell>
        <mxCell id="re8HCCjE5XyblDTNHWKC-74" value="&lt;h2&gt;&lt;b&gt;Data Cleaning&lt;/b&gt;&lt;/h2&gt;" style="text;html=1;strokeColor=none;fillColor=none;align=center;verticalAlign=middle;whiteSpace=wrap;rounded=0;" vertex="1" parent="1">
          <mxGeometry x="330" y="165" width="120" height="30" as="geometry" />
        </mxCell>
        <mxCell id="re8HCCjE5XyblDTNHWKC-76" value="" style="rounded=1;whiteSpace=wrap;html=1;" vertex="1" parent="1">
          <mxGeometry x="530" y="150" width="120" height="60" as="geometry" />
        </mxCell>
        <mxCell id="re8HCCjE5XyblDTNHWKC-80" value="" style="edgeStyle=orthogonalEdgeStyle;rounded=0;orthogonalLoop=1;jettySize=auto;html=1;" edge="1" parent="1" source="re8HCCjE5XyblDTNHWKC-77" target="re8HCCjE5XyblDTNHWKC-79">
          <mxGeometry relative="1" as="geometry" />
        </mxCell>
        <mxCell id="re8HCCjE5XyblDTNHWKC-77" value="&lt;b&gt;Labelling of Target Variable&lt;/b&gt;" style="text;html=1;strokeColor=none;fillColor=none;align=center;verticalAlign=middle;whiteSpace=wrap;rounded=0;" vertex="1" parent="1">
          <mxGeometry x="530" y="165" width="120" height="30" as="geometry" />
        </mxCell>
        <mxCell id="re8HCCjE5XyblDTNHWKC-83" value="" style="edgeStyle=orthogonalEdgeStyle;rounded=0;orthogonalLoop=1;jettySize=auto;html=1;" edge="1" parent="1" source="re8HCCjE5XyblDTNHWKC-79" target="re8HCCjE5XyblDTNHWKC-82">
          <mxGeometry relative="1" as="geometry" />
        </mxCell>
        <mxCell id="re8HCCjE5XyblDTNHWKC-79" value="" style="rounded=1;whiteSpace=wrap;html=1;" vertex="1" parent="1">
          <mxGeometry x="710" y="150" width="120" height="60" as="geometry" />
        </mxCell>
        <mxCell id="re8HCCjE5XyblDTNHWKC-81" value="&lt;h3&gt;&lt;b&gt;Feature Selection&lt;/b&gt;&lt;/h3&gt;" style="text;html=1;strokeColor=none;fillColor=none;align=center;verticalAlign=middle;whiteSpace=wrap;rounded=0;" vertex="1" parent="1">
          <mxGeometry x="710" y="165" width="120" height="30" as="geometry" />
        </mxCell>
        <mxCell id="re8HCCjE5XyblDTNHWKC-86" value="" style="edgeStyle=orthogonalEdgeStyle;rounded=0;orthogonalLoop=1;jettySize=auto;html=1;" edge="1" parent="1" source="re8HCCjE5XyblDTNHWKC-82" target="re8HCCjE5XyblDTNHWKC-85">
          <mxGeometry relative="1" as="geometry" />
        </mxCell>
        <mxCell id="re8HCCjE5XyblDTNHWKC-82" value="" style="rounded=1;whiteSpace=wrap;html=1;" vertex="1" parent="1">
          <mxGeometry x="710" y="260" width="120" height="60" as="geometry" />
        </mxCell>
        <mxCell id="re8HCCjE5XyblDTNHWKC-84" value="&lt;h3&gt;&lt;b&gt;Topic Modelling&lt;/b&gt;&lt;/h3&gt;" style="text;html=1;strokeColor=none;fillColor=none;align=center;verticalAlign=middle;whiteSpace=wrap;rounded=0;" vertex="1" parent="1">
          <mxGeometry x="710" y="275" width="120" height="30" as="geometry" />
        </mxCell>
        <mxCell id="re8HCCjE5XyblDTNHWKC-85" value="" style="rounded=1;whiteSpace=wrap;html=1;" vertex="1" parent="1">
          <mxGeometry x="710" y="370" width="120" height="60" as="geometry" />
        </mxCell>
        <mxCell id="re8HCCjE5XyblDTNHWKC-99" value="" style="edgeStyle=orthogonalEdgeStyle;rounded=0;orthogonalLoop=1;jettySize=auto;html=1;" edge="1" parent="1" source="re8HCCjE5XyblDTNHWKC-87" target="re8HCCjE5XyblDTNHWKC-98">
          <mxGeometry relative="1" as="geometry" />
        </mxCell>
        <mxCell id="re8HCCjE5XyblDTNHWKC-87" value="&lt;h3&gt;&lt;b&gt;Machine Leaning Models&lt;/b&gt;&lt;/h3&gt;" style="text;html=1;strokeColor=none;fillColor=none;align=center;verticalAlign=middle;whiteSpace=wrap;rounded=0;" vertex="1" parent="1">
          <mxGeometry x="710" y="385" width="120" height="30" as="geometry" />
        </mxCell>
        <mxCell id="re8HCCjE5XyblDTNHWKC-88" value="" style="rounded=1;whiteSpace=wrap;html=1;" vertex="1" parent="1">
          <mxGeometry x="620" y="470" width="70" height="30" as="geometry" />
        </mxCell>
        <mxCell id="re8HCCjE5XyblDTNHWKC-89" value="" style="rounded=1;whiteSpace=wrap;html=1;" vertex="1" parent="1">
          <mxGeometry x="735" y="470" width="70" height="30" as="geometry" />
        </mxCell>
        <mxCell id="re8HCCjE5XyblDTNHWKC-90" value="" style="rounded=1;whiteSpace=wrap;html=1;" vertex="1" parent="1">
          <mxGeometry x="850" y="470" width="70" height="30" as="geometry" />
        </mxCell>
        <mxCell id="re8HCCjE5XyblDTNHWKC-92" value="" style="endArrow=classic;html=1;rounded=0;exitX=0;exitY=1;exitDx=0;exitDy=0;entryX=0.5;entryY=0;entryDx=0;entryDy=0;" edge="1" parent="1" source="re8HCCjE5XyblDTNHWKC-85" target="re8HCCjE5XyblDTNHWKC-88">
          <mxGeometry width="50" height="50" relative="1" as="geometry">
            <mxPoint x="470" y="450" as="sourcePoint" />
            <mxPoint x="520" y="400" as="targetPoint" />
          </mxGeometry>
        </mxCell>
        <mxCell id="re8HCCjE5XyblDTNHWKC-93" value="" style="endArrow=classic;html=1;rounded=0;exitX=0.5;exitY=1;exitDx=0;exitDy=0;entryX=0.5;entryY=0;entryDx=0;entryDy=0;" edge="1" parent="1" source="re8HCCjE5XyblDTNHWKC-85" target="re8HCCjE5XyblDTNHWKC-89">
          <mxGeometry width="50" height="50" relative="1" as="geometry">
            <mxPoint x="470" y="450" as="sourcePoint" />
            <mxPoint x="520" y="400" as="targetPoint" />
          </mxGeometry>
        </mxCell>
        <mxCell id="re8HCCjE5XyblDTNHWKC-94" value="" style="endArrow=classic;html=1;rounded=0;exitX=1;exitY=1;exitDx=0;exitDy=0;entryX=0.5;entryY=0;entryDx=0;entryDy=0;" edge="1" parent="1" source="re8HCCjE5XyblDTNHWKC-85" target="re8HCCjE5XyblDTNHWKC-90">
          <mxGeometry width="50" height="50" relative="1" as="geometry">
            <mxPoint x="470" y="450" as="sourcePoint" />
            <mxPoint x="520" y="400" as="targetPoint" />
          </mxGeometry>
        </mxCell>
        <mxCell id="re8HCCjE5XyblDTNHWKC-95" value="Logistic Regression" style="text;html=1;strokeColor=none;fillColor=none;align=center;verticalAlign=middle;whiteSpace=wrap;rounded=0;" vertex="1" parent="1">
          <mxGeometry x="620" y="470" width="70" height="30" as="geometry" />
        </mxCell>
        <mxCell id="re8HCCjE5XyblDTNHWKC-96" value="Random Forest" style="text;html=1;strokeColor=none;fillColor=none;align=center;verticalAlign=middle;whiteSpace=wrap;rounded=0;" vertex="1" parent="1">
          <mxGeometry x="735" y="470" width="65" height="30" as="geometry" />
        </mxCell>
        <mxCell id="re8HCCjE5XyblDTNHWKC-97" value="KNN" style="text;html=1;strokeColor=none;fillColor=none;align=center;verticalAlign=middle;whiteSpace=wrap;rounded=0;" vertex="1" parent="1">
          <mxGeometry x="850" y="470" width="70" height="30" as="geometry" />
        </mxCell>
        <mxCell id="re8HCCjE5XyblDTNHWKC-98" value="" style="rounded=1;whiteSpace=wrap;html=1;" vertex="1" parent="1">
          <mxGeometry x="480" y="370" width="120" height="60" as="geometry" />
        </mxCell>
        <mxCell id="re8HCCjE5XyblDTNHWKC-102" value="" style="edgeStyle=orthogonalEdgeStyle;rounded=0;orthogonalLoop=1;jettySize=auto;html=1;" edge="1" parent="1" source="re8HCCjE5XyblDTNHWKC-100" target="re8HCCjE5XyblDTNHWKC-101">
          <mxGeometry relative="1" as="geometry" />
        </mxCell>
        <mxCell id="re8HCCjE5XyblDTNHWKC-100" value="&lt;h3&gt;&lt;b&gt;Hyperparameter Tuning and LDA&lt;/b&gt;&lt;/h3&gt;" style="text;html=1;strokeColor=none;fillColor=none;align=center;verticalAlign=middle;whiteSpace=wrap;rounded=0;" vertex="1" parent="1">
          <mxGeometry x="480" y="385" width="120" height="30" as="geometry" />
        </mxCell>
        <mxCell id="re8HCCjE5XyblDTNHWKC-101" value="" style="rounded=1;whiteSpace=wrap;html=1;" vertex="1" parent="1">
          <mxGeometry x="305" y="370" width="120" height="60" as="geometry" />
        </mxCell>
        <mxCell id="re8HCCjE5XyblDTNHWKC-114" value="" style="edgeStyle=orthogonalEdgeStyle;rounded=0;orthogonalLoop=1;jettySize=auto;html=1;" edge="1" parent="1" source="re8HCCjE5XyblDTNHWKC-103" target="re8HCCjE5XyblDTNHWKC-113">
          <mxGeometry relative="1" as="geometry" />
        </mxCell>
        <mxCell id="re8HCCjE5XyblDTNHWKC-103" value="&lt;h3&gt;&lt;b&gt;Machine Leaning Models&lt;/b&gt;&lt;/h3&gt;" style="text;html=1;strokeColor=none;fillColor=none;align=center;verticalAlign=middle;whiteSpace=wrap;rounded=0;" vertex="1" parent="1">
          <mxGeometry x="305" y="385" width="120" height="30" as="geometry" />
        </mxCell>
        <mxCell id="re8HCCjE5XyblDTNHWKC-104" value="" style="rounded=1;whiteSpace=wrap;html=1;" vertex="1" parent="1">
          <mxGeometry x="330" y="470" width="70" height="30" as="geometry" />
        </mxCell>
        <mxCell id="re8HCCjE5XyblDTNHWKC-105" value="" style="rounded=1;whiteSpace=wrap;html=1;" vertex="1" parent="1">
          <mxGeometry x="445" y="470" width="70" height="30" as="geometry" />
        </mxCell>
        <mxCell id="re8HCCjE5XyblDTNHWKC-106" value="" style="endArrow=classic;html=1;rounded=0;exitX=0;exitY=1;exitDx=0;exitDy=0;entryX=0.5;entryY=0;entryDx=0;entryDy=0;" edge="1" parent="1">
          <mxGeometry width="50" height="50" relative="1" as="geometry">
            <mxPoint x="305" y="430" as="sourcePoint" />
            <mxPoint x="250" y="470" as="targetPoint" />
          </mxGeometry>
        </mxCell>
        <mxCell id="re8HCCjE5XyblDTNHWKC-107" value="" style="endArrow=classic;html=1;rounded=0;exitX=0.5;exitY=1;exitDx=0;exitDy=0;entryX=0.5;entryY=0;entryDx=0;entryDy=0;" edge="1" parent="1" target="re8HCCjE5XyblDTNHWKC-104">
          <mxGeometry width="50" height="50" relative="1" as="geometry">
            <mxPoint x="365" y="430" as="sourcePoint" />
            <mxPoint x="115" y="400" as="targetPoint" />
          </mxGeometry>
        </mxCell>
        <mxCell id="re8HCCjE5XyblDTNHWKC-108" value="" style="endArrow=classic;html=1;rounded=0;exitX=1;exitY=1;exitDx=0;exitDy=0;entryX=0.5;entryY=0;entryDx=0;entryDy=0;" edge="1" parent="1" target="re8HCCjE5XyblDTNHWKC-105">
          <mxGeometry width="50" height="50" relative="1" as="geometry">
            <mxPoint x="425" y="430" as="sourcePoint" />
            <mxPoint x="115" y="400" as="targetPoint" />
          </mxGeometry>
        </mxCell>
        <mxCell id="re8HCCjE5XyblDTNHWKC-109" value="Random Forest" style="text;html=1;strokeColor=none;fillColor=none;align=center;verticalAlign=middle;whiteSpace=wrap;rounded=0;" vertex="1" parent="1">
          <mxGeometry x="330" y="470" width="65" height="30" as="geometry" />
        </mxCell>
        <mxCell id="re8HCCjE5XyblDTNHWKC-110" value="KNN" style="text;html=1;strokeColor=none;fillColor=none;align=center;verticalAlign=middle;whiteSpace=wrap;rounded=0;" vertex="1" parent="1">
          <mxGeometry x="445" y="470" width="70" height="30" as="geometry" />
        </mxCell>
        <mxCell id="re8HCCjE5XyblDTNHWKC-111" value="" style="rounded=1;whiteSpace=wrap;html=1;" vertex="1" parent="1">
          <mxGeometry x="210" y="470" width="70" height="30" as="geometry" />
        </mxCell>
        <mxCell id="re8HCCjE5XyblDTNHWKC-112" value="XGB" style="text;html=1;strokeColor=none;fillColor=none;align=center;verticalAlign=middle;whiteSpace=wrap;rounded=0;" vertex="1" parent="1">
          <mxGeometry x="210" y="470" width="70" height="30" as="geometry" />
        </mxCell>
        <mxCell id="re8HCCjE5XyblDTNHWKC-113" value="" style="rounded=1;whiteSpace=wrap;html=1;" vertex="1" parent="1">
          <mxGeometry x="110" y="370" width="120" height="60" as="geometry" />
        </mxCell>
        <mxCell id="re8HCCjE5XyblDTNHWKC-117" value="" style="edgeStyle=orthogonalEdgeStyle;rounded=0;orthogonalLoop=1;jettySize=auto;html=1;" edge="1" parent="1" source="re8HCCjE5XyblDTNHWKC-115" target="re8HCCjE5XyblDTNHWKC-116">
          <mxGeometry relative="1" as="geometry" />
        </mxCell>
        <mxCell id="re8HCCjE5XyblDTNHWKC-115" value="&lt;h3&gt;&lt;b&gt;Prediction using Random Forest&lt;/b&gt;&lt;/h3&gt;" style="text;html=1;strokeColor=none;fillColor=none;align=center;verticalAlign=middle;whiteSpace=wrap;rounded=0;" vertex="1" parent="1">
          <mxGeometry x="110" y="385" width="120" height="30" as="geometry" />
        </mxCell>
        <mxCell id="re8HCCjE5XyblDTNHWKC-120" value="" style="edgeStyle=orthogonalEdgeStyle;rounded=0;orthogonalLoop=1;jettySize=auto;html=1;" edge="1" parent="1" source="re8HCCjE5XyblDTNHWKC-116" target="re8HCCjE5XyblDTNHWKC-119">
          <mxGeometry relative="1" as="geometry" />
        </mxCell>
        <mxCell id="re8HCCjE5XyblDTNHWKC-116" value="" style="rounded=1;whiteSpace=wrap;html=1;" vertex="1" parent="1">
          <mxGeometry x="-60" y="370" width="120" height="60" as="geometry" />
        </mxCell>
        <mxCell id="re8HCCjE5XyblDTNHWKC-118" value="&lt;h3&gt;&lt;b&gt;Evaluation&lt;/b&gt;&lt;/h3&gt;" style="text;html=1;strokeColor=none;fillColor=none;align=center;verticalAlign=middle;whiteSpace=wrap;rounded=0;" vertex="1" parent="1">
          <mxGeometry x="-60" y="385" width="120" height="30" as="geometry" />
        </mxCell>
        <mxCell id="re8HCCjE5XyblDTNHWKC-119" value="" style="strokeWidth=2;html=1;shape=mxgraph.flowchart.terminator;whiteSpace=wrap;" vertex="1" parent="1">
          <mxGeometry x="-50" y="520" width="100" height="60" as="geometry" />
        </mxCell>
        <mxCell id="re8HCCjE5XyblDTNHWKC-121" value="&lt;h2&gt;&lt;b&gt;&lt;font color=&quot;#cc0000&quot;&gt;EXIT&lt;/font&gt;&lt;/b&gt;&lt;/h2&gt;" style="text;html=1;strokeColor=#b85450;fillColor=#f8cecc;align=center;verticalAlign=middle;whiteSpace=wrap;rounded=0;" vertex="1" parent="1">
          <mxGeometry x="-40" y="535" width="80" height="30" as="geometry" />
        </mxCell>
      </root>
    </mxGraphModel>
  </diagram>
</mxfile>
